HIERARCHY
ROOT Hips
{
	OFFSET 0.00000 0.00000 0.00000
	CHANNELS 6 Xposition Yposition Zposition Zrotation Yrotation Xrotation 
	JOINT LHipJoint
	{
		OFFSET 0 0 0
		CHANNELS 3 Zrotation Yrotation Xrotation
		JOINT LeftUpLeg
		{
			OFFSET 1.48831 -1.59570 0.95625
			CHANNELS 3 Zrotation Yrotation Xrotation
			JOINT LeftLeg
			{
				OFFSET 2.20856 -6.06797 0.00000
				CHANNELS 3 Zrotation Yrotation Xrotation
				JOINT LeftFoot
				{
					OFFSET 2.62924 -7.22379 0.00000
					CHANNELS 3 Zrotation Yrotation Xrotation
					JOINT LeftToeBase
					{
						OFFSET 0.16802 -0.46163 2.41673
						CHANNELS 3 Zrotation Yrotation Xrotation
						End Site
						{
							OFFSET 0.00000 -0.00000 1.23760
						}
					}
				}
			}
		}
	}
	JOINT RHipJoint
	{
		OFFSET 0 0 0
		CHANNELS 3 Zrotation Yrotation Xrotation
		JOINT RightUpLeg
		{
			OFFSET -1.56796 -1.59570 0.95625
			CHANNELS 3 Zrotation Yrotation Xrotation
			JOINT RightLeg
			{
				OFFSET -2.29239 -6.29829 0.00000
				CHANNELS 3 Zrotation Yrotation Xrotation
				JOINT RightFoot
				{
					OFFSET -2.66963 -7.33475 0.00000
					CHANNELS 3 Zrotation Yrotation Xrotation
					JOINT RightToeBase
					{
						OFFSET -0.18185 -0.49964 2.34359
						CHANNELS 3 Zrotation Yrotation Xrotation
						End Site
						{
							OFFSET -0.00000 -0.00000 1.20477
						}
					}
				}
			}
		}
	}
	JOINT LowerBack
	{
		OFFSET 0 0 0
		CHANNELS 3 Zrotation Yrotation Xrotation
		JOINT Spine
		{
			OFFSET 0.03505 2.15832 -0.34324
			CHANNELS 3 Zrotation Yrotation Xrotation
			JOINT Spine1
			{
				OFFSET -0.01089 2.17963 0.04689
				CHANNELS 3 Zrotation Yrotation Xrotation
				JOINT Neck
				{
					OFFSET 0 0 0
					CHANNELS 3 Zrotation Yrotation Xrotation
					JOINT Neck1
					{
						OFFSET 0.04686 1.69404 0.22159
						CHANNELS 3 Zrotation Yrotation Xrotation
						JOINT Head
						{
							OFFSET 0.00265 1.69305 -0.01513
							CHANNELS 3 Zrotation Yrotation Xrotation
							End Site
							{
								OFFSET -0.00415 1.80215 -0.03034
							}
						}
					}
				}
				JOINT LeftShoulder
				{
					OFFSET 0 0 0
					CHANNELS 3 Zrotation Yrotation Xrotation
					JOINT LeftArm
					{
						OFFSET 3.67184 1.11724 -0.19002
						CHANNELS 3 Zrotation Yrotation Xrotation
						JOINT LeftForeArm
						{
							OFFSET 5.17714 -0.00000 -0.00000
							CHANNELS 3 Zrotation Yrotation Xrotation
							JOINT LeftHand
							{
								OFFSET 3.43679 -0.00000 -0.00000
								CHANNELS 3 Zrotation Yrotation Xrotation
								JOINT LeftFingerBase
								{
									OFFSET 0 0 0
									CHANNELS 3 Zrotation Yrotation Xrotation
									JOINT LeftHandIndex1
									{
										OFFSET 0.57312 -0.00000 -0.00000
										CHANNELS 3 Zrotation Yrotation Xrotation
										End Site
										{
											OFFSET 0.46206 -0.00000 -0.00000
										}
									}
								}
								JOINT LThumb
								{
									OFFSET 0 0 0
									CHANNELS 3 Zrotation Yrotation Xrotation
									End Site
									{
										OFFSET 0.46912 -0.00000 0.46912
									}
								}
							}
						}
					}
				}
				JOINT RightShoulder
				{
					OFFSET 0 0 0
					CHANNELS 3 Zrotation Yrotation Xrotation
					JOINT RightArm
					{
						OFFSET -3.59596 0.95831 -0.26050
						CHANNELS 3 Zrotation Yrotation Xrotation
						JOINT RightForeArm
						{
							OFFSET -5.23908 -0.00000 -0.00000
							CHANNELS 3 Zrotation Yrotation Xrotation
							JOINT RightHand
							{
								OFFSET -3.46485 -0.00000 -0.00000
								CHANNELS 3 Zrotation Yrotation Xrotation
								JOINT RightFingerBase
								{
									OFFSET 0 0 0
									CHANNELS 3 Zrotation Yrotation Xrotation
									JOINT RightHandIndex1
									{
										OFFSET -0.60875 -0.00000 -0.00000
										CHANNELS 3 Zrotation Yrotation Xrotation
										End Site
										{
											OFFSET -0.49079 -0.00000 -0.00000
										}
									}
								}
								JOINT RThumb
								{
									OFFSET 0 0 0
									CHANNELS 3 Zrotation Yrotation Xrotation
									End Site
									{
										OFFSET -0.49829 -0.00000 0.49829
									}
								}
							}
						}
					}
				}
			}
		}
	}
}
MOTION
Frames: 15
Frame Time: .0083333
45.8116 15.887 13.5702 0 0 0 0 0 0 -21 0 0 0 0 0 0 0 0 0 0 0 0 0 0 21 0 0 0 0 0 0 0 0 0 0 0 0 0 0 0 0 0 0 0 0 0 0 -16 0 0 21 0 0 11 0 0 0 -8 0 0 0 0 0 0 0 0 0 0 0 0 0 0 0 0 0 0 0 0 8 0 0 0 0 0 0 0 0 0 0 0 0 0 0 0 0 0
45.8116 15.8870 13.5702 -174.0640 -54.7029 173.5810 0.0000 0.0000 0.0000 -17.5025 3.6935 -3.6091 2.1075 9.0865 26.0662 1.9736 8.4806 -30.7028 0.0911 1.9465 5.3578 0.0000 0.0000 0.0000 19.8158 5.9231 -9.7443 -3.7748 -11.8545 35.2194 -1.7443 -6.8372 -28.2028 -0.0448 1.3653 -3.7546 2.1635 -0.2567 -1.7764 0.5856 -0.5464 4.0773 -0.6432 -0.2309 5.1981 0.9732 0.7587 -9.9532 -1.9116 0.5401 24.3936 -0.8145 -0.1724 9.3083 -0.0000 0.0000 0.0000 -89.3344 -6.2541 8.2047 10.4424 -17.4286 -1.6049 -0.0000 0.0000 -20.4876 15.5999 7.0347 1.9584 -7.1250 0.0000 -0.0000 -9.4801 37.1311 1.8558 -0.0000 0.0000 0.0000 90.1863 2.7463 5.3699 -13.2696 21.6810 -2.5520 0.0000 0.0000 5.3913 -19.3203 -5.3603 1.8759 7.1250 -0.0000 -0.0000 6.1540 -35.6021 1.4279
45.8116 15.8880 13.5686 -174.1710 -54.7208 173.6670 0.0000 0.0000 0.0000 -17.5467 4.0416 -3.7952 2.1115 9.0946 26.0916 1.8299 9.1293 -30.2194 0.0291 1.1021 3.0299 0.0000 0.0000 0.0000 19.7470 5.9033 -9.7458 -3.7756 -11.8557 35.2234 -1.7413 -6.8425 -28.1855 -0.0460 1.3846 -3.8076 2.0750 -0.2562 -1.8023 0.5855 -0.5431 4.0922 -0.5937 -0.2325 5.2291 1.0196 0.7678 -9.9964 -1.9808 0.5591 24.4398 -0.8447 -0.1677 9.3334 -0.0000 0.0000 0.0000 -89.3465 -6.2836 8.1035 10.4535 -17.4458 -1.6082 -0.0000 0.0000 -20.3892 15.5834 7.3693 2.0487 -7.1250 0.0000 -0.0000 -9.5477 37.4720 1.7887 -0.0000 0.0000 0.0000 90.1527 2.7752 5.3218 -13.2374 21.6340 -2.5401 0.0000 0.0000 5.4180 -19.3441 -5.3288 1.8674 7.1250 -0.0000 -0.0000 6.1309 -35.5702 1.4273
45.8118 15.8884 13.5679 -174.1940 -54.7467 173.7040 0.0000 0.0000 0.0000 -17.5623 4.0395 -3.8153 2.1105 9.0926 26.0853 1.8216 9.1531 -30.1826 0.0261 1.0432 2.8676 0.0000 0.0000 0.0000 19.7340 5.9168 -9.7691 -3.7771 -11.8578 35.2306 -1.7371 -6.8993 -28.1913 -0.0479 1.4124 -3.8844 2.0574 -0.2612 -1.8125 0.5808 -0.5482 4.0812 -0.5891 -0.2355 5.2232 0.9400 0.7509 -9.8998 -1.9067 0.5319 24.3927 -0.8081 -0.1794 9.2976 0.0000 -0.0000 0.0000 -89.3138 -6.2716 8.1209 10.4598 -17.4556 -1.6101 -0.0000 0.0000 -20.4339 15.6696 7.0680 1.9769 -7.1250 0.0000 -0.0000 -9.4271 37.1694 1.8362 0.0000 -0.0000 0.0000 90.1601 2.7443 5.3188 -13.2528 21.6565 -2.5458 0.0000 0.0000 5.4436 -19.2742 -5.3578 1.8702 7.1250 -0.0000 -0.0000 6.1920 -35.5972 1.4375
45.8126 15.8882 13.5676 -174.2030 -54.7680 173.7110 0.0000 0.0000 0.0000 -17.5602 4.0324 -3.8203 2.1102 9.0919 26.0833 1.8270 9.1047 -30.1845 0.0285 1.0896 2.9954 0.0000 0.0000 0.0000 19.7259 5.9045 -9.7752 -3.7788 -11.8601 35.2388 -1.7421 -6.8734 -28.2094 -0.0464 1.3894 -3.8211 2.0491 -0.2590 -1.8062 0.5766 -0.5446 4.0836 -0.5885 -0.2340 5.2223 0.9368 0.7485 -9.8941 -1.8814 0.5229 24.3953 -0.7998 -0.1813 9.2972 0.0000 -0.0000 0.0000 -89.2817 -6.3003 8.1090 10.4638 -17.4618 -1.6113 -0.0000 0.0000 -20.4034 15.5787 7.2547 2.0164 -7.1250 0.0000 -0.0000 -9.5331 37.3545 1.8136 0.0000 -0.0000 0.0000 90.1670 2.7501 5.2953 -13.2476 21.6490 -2.5439 0.0000 0.0000 5.4280 -19.2979 -5.3721 1.8776 7.1250 -0.0000 -0.0000 6.1740 -35.6135 1.4308
45.8131 15.8881 13.5669 -174.2270 -54.7873 173.7350 0.0000 0.0000 0.0000 -17.5695 4.0748 -3.8492 2.1084 9.0883 26.0718 1.8047 9.1906 -30.0995 0.0226 0.9708 2.6684 0.0000 0.0000 0.0000 19.7100 5.9011 -9.7848 -3.7807 -11.8627 35.2479 -1.7433 -6.8757 -28.2187 -0.0463 1.3887 -3.8190 2.0300 -0.2589 -1.8090 0.5735 -0.5434 4.0834 -0.5809 -0.2340 5.2238 0.9246 0.7440 -9.8743 -1.8649 0.5142 24.3938 -0.7930 -0.1848 9.2928 -0.0000 -0.0000 0.0000 -89.2553 -6.3133 8.1010 10.4739 -17.4774 -1.6144 -0.0000 0.0000 -20.3921 15.5566 7.3050 2.0273 -7.1250 0.0000 -0.0000 -9.5597 37.4045 1.8070 -0.0000 -0.0000 0.0000 90.1676 2.7478 5.2795 -13.2463 21.6470 -2.5434 0.0000 0.0000 5.4333 -19.2931 -5.3779 1.8791 7.1250 -0.0000 -0.0000 6.1785 -35.6193 1.4310
45.8136 15.8879 13.5664 -174.2430 -54.8055 173.7530 0.0000 0.0000 0.0000 -17.5754 4.0907 -3.8661 2.1066 9.0846 26.0603 1.7925 9.2324 -30.0500 0.0200 0.9126 2.5082 0.0000 0.0000 0.0000 19.6996 5.8993 -9.7939 -3.7827 -11.8655 35.2578 -1.7450 -6.8744 -28.2300 -0.0460 1.3844 -3.8071 2.0181 -0.2581 -1.8094 0.5701 -0.5416 4.0826 -0.5777 -0.2335 5.2233 0.9161 0.7395 -9.8588 -1.8495 0.5052 24.3927 -0.7872 -0.1883 9.2892 -0.0000 0.0000 0.0000 -89.2256 -6.3253 8.1062 10.4864 -17.4968 -1.6181 -0.0000 0.0000 -20.3888 15.5464 7.3282 2.0323 -7.1250 0.0000 -0.0000 -9.5721 37.4276 1.8039 -0.0000 0.0000 0.0000 90.1718 2.7452 5.2701 -13.2481 21.6497 -2.5441 0.0000 0.0000 5.4322 -19.2933 -5.3815 1.8804 7.1250 -0.0000 -0.0000 6.1787 -35.6231 1.4305
45.8140 15.8878 13.5659 -174.2600 -54.8212 173.7720 0.0000 0.0000 0.0000 -17.5821 4.1051 -3.8816 2.1049 9.0813 26.0499 1.7821 9.2668 -30.0067 0.0179 0.8647 2.3766 0.0000 0.0000 0.0000 19.6888 5.8981 -9.8026 -3.7844 -11.8679 35.2663 -1.7468 -6.8725 -28.2410 -0.0457 1.3799 -3.7946 2.0059 -0.2566 -1.8111 0.5667 -0.5387 4.0825 -0.5742 -0.2324 5.2242 0.9171 0.7357 -9.8526 -1.8454 0.4981 24.3982 -0.7868 -0.1913 9.2899 0.0000 -0.0000 0.0000 -89.1964 -6.3371 8.1180 10.5017 -17.5205 -1.6227 -0.0000 0.0000 -20.3902 15.5443 7.3573 2.0400 -7.1250 0.0000 -0.0000 -9.5786 37.4572 1.7981 0.0000 -0.0000 0.0000 90.1756 2.7431 5.2694 -13.2516 21.6547 -2.5454 0.0000 0.0000 5.4205 -19.3018 -5.3737 1.8786 7.1250 -0.0000 -0.0000 6.1709 -35.6153 1.4298
45.8144 15.8878 13.5653 -174.2760 -54.8361 173.7910 0.0000 0.0000 0.0000 -17.5897 4.1029 -3.8900 2.1032 9.0778 26.0391 1.7776 9.2778 -29.9848 0.0174 0.8514 2.3401 0.0000 0.0000 0.0000 19.6792 5.8989 -9.8117 -3.7858 -11.8698 35.2729 -1.7482 -6.8750 -28.2517 -0.0456 1.3776 -3.7884 1.9956 -0.2539 -1.8148 0.5629 -0.5345 4.0822 -0.5722 -0.2306 5.2262 0.9264 0.7311 -9.8499 -1.8490 0.4903 24.4043 -0.7906 -0.1947 9.2914 -0.0000 0.0000 0.0000 -89.1657 -6.3469 8.1436 10.5202 -17.5491 -1.6283 -0.0000 0.0000 -20.4033 15.5606 7.3670 2.0449 -7.1250 0.0000 -0.0000 -9.5665 37.4682 1.7932 -0.0000 0.0000 0.0000 90.1811 2.7409 5.2719 -13.2593 21.6659 -2.5482 0.0000 0.0000 5.4147 -19.2956 -5.3735 1.8779 7.1250 -0.0000 -0.0000 6.1760 -35.6148 1.4311
45.8148 15.8880 13.5648 -174.2930 -54.8484 173.8120 0.0000 0.0000 0.0000 -17.5980 4.1003 -3.8947 2.1016 9.0746 26.0289 1.7767 9.2697 -29.9735 0.0176 0.8568 2.3549 0.0000 0.0000 0.0000 19.6694 5.9013 -9.8194 -3.7868 -11.8712 35.2777 -1.7502 -6.8726 -28.2635 -0.0451 1.3709 -3.7700 1.9849 -0.2504 -1.8206 0.5597 -0.5292 4.0836 -0.5692 -0.2283 5.2311 0.9359 0.7254 -9.8487 -1.8555 0.4817 24.4083 -0.7954 -0.1986 9.2925 0.0000 -0.0000 0.0000 -89.1372 -6.3608 8.1713 10.5384 -17.5772 -1.6338 -0.0000 0.0000 -20.4194 15.5865 7.3536 2.0448 -7.1250 0.0000 -0.0000 -9.5425 37.4561 1.7914 0.0000 -0.0000 0.0000 90.1851 2.7414 5.2821 -13.2702 21.6818 -2.5522 0.0000 0.0000 5.4039 -19.2831 -5.3796 1.8787 7.1250 -0.0000 -0.0000 6.1871 -35.6206 1.4328
45.8152 15.8883 13.5643 -174.3100 -54.8593 173.8330 0.0000 0.0000 0.0000 -17.6077 4.0892 -3.8959 2.1001 9.0716 26.0194 1.7786 9.2524 -29.9740 0.0185 0.8776 2.4122 0.0000 0.0000 0.0000 19.6596 5.9049 -9.8277 -3.7875 -11.8722 35.2813 -1.7517 -6.8729 -28.2742 -0.0448 1.3657 -3.7555 1.9743 -0.2460 -1.8269 0.5567 -0.5229 4.0848 -0.5660 -0.2254 5.2361 0.9512 0.7201 -9.8515 -1.8677 0.4740 24.4143 -0.8031 -0.2022 9.2951 0.0000 -0.0000 0.0000 -89.1088 -6.3765 8.2023 10.5556 -17.6039 -1.6390 -0.0000 0.0000 -20.4402 15.6130 7.3238 2.0402 -7.1250 0.0000 -0.0000 -9.5155 37.4273 1.7930 0.0000 -0.0000 0.0000 90.1892 2.7447 5.2888 -13.2824 21.6996 -2.5568 0.0000 0.0000 5.4043 -19.2574 -5.3963 1.8818 7.1250 -0.0000 -0.0000 6.2101 -35.6368 1.4357
45.8155 15.8887 13.5639 -174.3280 -54.8679 173.8550 0.0000 0.0000 0.0000 -17.6182 4.0835 -3.8993 2.0987 9.0688 26.0106 1.7787 9.2443 -29.9691 0.0188 0.8852 2.4329 0.0000 0.0000 0.0000 19.6492 5.9095 -9.8347 -3.7882 -11.8731 35.2847 -1.7548 -6.8619 -28.2881 -0.0438 1.3507 -3.7142 1.9637 -0.2412 -1.8348 0.5545 -0.5161 4.0871 -0.5620 -0.2223 5.2432 0.9645 0.7149 -9.8548 -1.8815 0.4673 24.4193 -0.8109 -0.2057 9.2974 0.0000 -0.0000 0.0000 -89.0827 -6.3969 8.2296 10.5722 -17.6295 -1.6440 -0.0000 0.0000 -20.4564 15.6311 7.2969 2.0352 -7.1250 0.0000 -0.0000 -9.4960 37.4011 1.7955 0.0000 -0.0000 0.0000 90.1915 2.7514 5.3014 -13.2960 21.7194 -2.5618 0.0000 0.0000 5.3975 -19.2105 -5.4113 1.8820 7.1250 -0.0000 -0.0000 6.2507 -35.6504 1.4431
45.8159 15.8890 13.5635 -174.3450 -54.8731 173.8750 0.0000 0.0000 0.0000 -17.6295 4.0800 -3.9018 2.0973 9.0659 26.0017 1.7768 9.2519 -29.9620 0.0185 0.8784 2.4144 0.0000 0.0000 0.0000 19.6391 5.9148 -9.8409 -3.7891 -11.8743 35.2887 -1.7577 -6.8472 -28.2992 -0.0428 1.3346 -3.6701 1.9550 -0.2360 -1.8411 0.5521 -0.5089 4.0894 -0.5592 -0.2189 5.2495 0.9767 0.7112 -9.8573 -1.8945 0.4627 24.4230 -0.8180 -0.2081 9.2991 -0.0000 -0.0000 0.0000 -89.0574 -6.4181 8.2542 10.5882 -17.6544 -1.6489 -0.0000 0.0000 -20.4699 15.6402 7.2658 2.0278 -7.1250 0.0000 -0.0000 -9.4833 37.3698 1.8004 -0.0000 -0.0000 0.0000 90.1943 2.7599 5.3203 -13.3094 21.7388 -2.5667 0.0000 0.0000 5.3790 -19.1579 -5.4219 1.8802 7.1250 -0.0000 -0.0000 6.2956 -35.6588 1.4523
45.8163 15.8894 13.5632 -174.3650 -54.8770 173.8970 0.0000 0.0000 0.0000 -17.6421 4.0807 -3.9061 2.0959 9.0630 25.9927 1.7722 9.2739 -29.9479 0.0176 0.8572 2.3561 0.0000 0.0000 0.0000 19.6276 5.9193 -9.8477 -3.7901 -11.8757 35.2937 -1.7602 -6.8342 -28.3079 -0.0419 1.3212 -3.6330 1.9455 -0.2317 -1.8449 0.5495 -0.5027 4.0912 -0.5561 -0.2162 5.2537 0.9862 0.7086 -9.8587 -1.9063 0.4601 24.4245 -0.8239 -0.2097 9.3000 -0.0000 -0.0000 0.0000 -89.0329 -6.4398 8.2761 10.6044 -17.6794 -1.6538 -0.0000 0.0000 -20.4813 15.6369 7.2543 2.0242 -7.1250 0.0000 -0.0000 -9.4842 37.3579 1.8033 -0.0000 -0.0000 0.0000 90.1974 2.7705 5.3469 -13.3223 21.7576 -2.5715 0.0000 0.0000 5.3433 -19.1063 -5.4170 1.8730 7.1250 -0.0000 -0.0000 6.3379 -35.6511 1.4634
45.8169 15.8897 13.5630 -174.3860 -54.8823 173.9180 0.0000 0.0000 0.0000 -17.6552 4.0815 -3.9089 2.0944 9.0600 25.9832 1.7680 9.2946 -29.9347 0.0168 0.8372 2.3009 0.0000 0.0000 0.0000 19.6154 5.9214 -9.8551 -3.7912 -11.8773 35.2991 -1.7615 -6.8268 -28.3124 -0.0412 1.3109 -3.6046 1.9356 -0.2285 -1.8450 0.5461 -0.4978 4.0928 -0.5538 -0.2140 5.2555 0.9893 0.7062 -9.8560 -1.9094 0.4572 24.4195 -0.8257 -0.2109 9.2977 -0.0000 0.0000 0.0000 -89.0077 -6.4616 8.2995 10.6219 -17.7064 -1.6591 -0.0000 0.0000 -20.4921 15.6323 7.2562 2.0241 -7.1250 0.0000 -0.0000 -9.4884 37.3595 1.8038 -0.0000 0.0000 0.0000 90.2029 2.7808 5.3844 -13.3374 21.7796 -2.5771 0.0000 0.0000 5.2869 -19.0681 -5.3973 1.8622 7.1250 -0.0000 -0.0000 6.3675 -35.6285 1.4738
